# This file uses centimeters as units for non-parametric coordinates.

mtllib CornellDiffuse2.mtl
g default
v 0.000000 5.505513 -5.502980
v 1.096546 5.505513 -5.502980
v 2.193091 5.505513 -5.502980
v 3.289637 5.505513 -5.502980
v 4.386183 5.505513 -5.502980
v 5.482729 5.505513 -5.502980
v 0.000000 5.505513 -4.406434
v 1.096546 5.505513 -4.406434
v 2.193091 5.505513 -4.406434
v 3.289637 5.505513 -4.406434
v 4.386183 5.505513 -4.406434
v 5.482729 5.505513 -4.406434
v 0.000000 5.505513 -3.309889
v 1.096546 5.505513 -3.309889
v 2.193091 5.505513 -3.309889
v 3.289637 5.505513 -3.309889
v 4.386183 5.505513 -3.309889
v 5.482729 5.505513 -3.309889
v 0.000000 5.505513 -2.213343
v 1.096546 5.505513 -2.213343
v 2.193091 5.505513 -2.213343
v 3.289637 5.505513 -2.213343
v 4.386183 5.505513 -2.213343
v 5.482729 5.505513 -2.213343
v 0.000000 5.505513 -1.116797
v 1.096546 5.505513 -1.116797
v 2.193091 5.505513 -1.116797
v 3.289637 5.505513 -1.116797
v 4.386183 5.505513 -1.116797
v 5.482729 5.505513 -1.116797
v 0.000000 5.505513 -0.020251
v 1.096546 5.505513 -0.020251
v 2.193091 5.505513 -0.020251
v 3.289637 5.505513 -0.020251
v 4.386183 5.505513 -0.020251
v 5.482729 5.505513 -0.020251
vt 0.500000 0.500000
vt 0.600000 0.500000
vt 0.700000 0.500000
vt 0.800000 0.500000
vt 0.900000 0.500000
vt 1.000000 0.500000
vt 0.500000 0.600000
vt 0.600000 0.600000
vt 0.700000 0.600000
vt 0.800000 0.600000
vt 0.900000 0.600000
vt 1.000000 0.600000
vt 0.500000 0.700000
vt 0.600000 0.700000
vt 0.700000 0.700000
vt 0.800000 0.700000
vt 0.900000 0.700000
vt 1.000000 0.700000
vt 0.500000 0.800000
vt 0.600000 0.800000
vt 0.700000 0.800000
vt 0.800000 0.800000
vt 0.900000 0.800000
vt 1.000000 0.800000
vt 0.500000 0.900000
vt 0.600000 0.900000
vt 0.700000 0.900000
vt 0.800000 0.900000
vt 0.900000 0.900000
vt 1.000000 0.900000
vt 0.500000 1.000000
vt 0.600000 1.000000
vt 0.700000 1.000000
vt 0.800000 1.000000
vt 0.900000 1.000000
vt 1.000000 1.000000
vn 0.000000 -1.000000 -0.000000
vn 0.000000 -1.000000 -0.000000
vn 0.000000 -1.000000 -0.000000
vn 0.000000 -1.000000 -0.000000
vn 0.000000 -1.000000 -0.000000
vn 0.000000 -1.000000 -0.000000
vn 0.000000 -1.000000 -0.000000
vn 0.000000 -1.000000 -0.000000
vn 0.000000 -1.000000 -0.000000
vn 0.000000 -1.000000 -0.000000
vn 0.000000 -1.000000 -0.000000
vn 0.000000 -1.000000 -0.000000
vn 0.000000 -1.000000 -0.000000
vn 0.000000 -1.000000 -0.000000
vn 0.000000 -1.000000 -0.000000
vn 0.000000 -1.000000 -0.000000
vn 0.000000 -1.000000 -0.000000
vn 0.000000 -1.000000 -0.000000
vn 0.000000 -1.000000 -0.000000
vn 0.000000 -1.000000 -0.000000
vn 0.000000 -1.000000 -0.000000
vn 0.000000 -1.000000 -0.000000
vn 0.000000 -1.000000 -0.000000
vn 0.000000 -1.000000 -0.000000
vn 0.000000 -1.000000 -0.000000
vn 0.000000 -1.000000 -0.000000
vn 0.000000 -1.000000 -0.000000
vn 0.000000 -1.000000 -0.000000
vn 0.000000 -1.000000 -0.000000
vn 0.000000 -1.000000 -0.000000
vn 0.000000 -1.000000 -0.000000
vn 0.000000 -1.000000 -0.000000
vn 0.000000 -1.000000 -0.000000
vn 0.000000 -1.000000 -0.000000
vn 0.000000 -1.000000 -0.000000
vn 0.000000 -1.000000 -0.000000
s 1
g pPlane2
usemtl initialShadingGroup
f 1/1/1 2/2/2 8/8/3 7/7/4
f 2/2/2 3/3/5 9/9/6 8/8/3
f 3/3/5 4/4/7 10/10/8 9/9/6
f 4/4/7 5/5/9 11/11/10 10/10/8
f 5/5/9 6/6/11 12/12/12 11/11/10
f 7/7/4 8/8/3 14/14/13 13/13/14
f 8/8/3 9/9/6 15/15/15 14/14/13
f 9/9/6 10/10/8 16/16/16 15/15/15
f 10/10/8 11/11/10 17/17/17 16/16/16
f 11/11/10 12/12/12 18/18/18 17/17/17
f 13/13/14 14/14/13 20/20/19 19/19/20
f 14/14/13 15/15/15 21/21/21 20/20/19
f 15/15/15 16/16/16 22/22/22 21/21/21
f 16/16/16 17/17/17 23/23/23 22/22/22
f 17/17/17 18/18/18 24/24/24 23/23/23
f 19/19/20 20/20/19 26/26/25 25/25/26
f 20/20/19 21/21/21 27/27/27 26/26/25
f 21/21/21 22/22/22 28/28/28 27/27/27
f 22/22/22 23/23/23 29/29/29 28/28/28
f 23/23/23 24/24/24 30/30/30 29/29/29
f 25/25/26 26/26/25 32/32/31 31/31/32
f 26/26/25 27/27/27 33/33/33 32/32/31
f 27/27/27 28/28/28 34/34/34 33/33/33
f 28/28/28 29/29/29 35/35/35 34/34/34
f 29/29/29 30/30/30 36/36/36 35/35/35
g default
v 0.000000 0.000000 0.000000
v 1.096546 0.000000 0.000000
v 2.193091 0.000000 0.000000
v 3.289637 0.000000 0.000000
v 4.386183 0.000000 0.000000
v 5.482729 0.000000 0.000000
v 0.000000 0.000000 -1.096546
v 1.096546 0.000000 -1.096546
v 2.193091 0.000000 -1.096546
v 3.289637 0.000000 -1.096546
v 4.386183 0.000000 -1.096546
v 5.482729 0.000000 -1.096546
v 0.000000 0.000000 -2.193091
v 1.096546 0.000000 -2.193091
v 2.193091 0.000000 -2.193091
v 3.289637 0.000000 -2.193091
v 4.386183 0.000000 -2.193091
v 5.482729 0.000000 -2.193091
v 0.000000 0.000000 -3.289637
v 1.096546 0.000000 -3.289637
v 2.193091 0.000000 -3.289637
v 3.289637 0.000000 -3.289637
v 4.386183 0.000000 -3.289637
v 5.482729 0.000000 -3.289637
v 0.000000 0.000000 -4.386183
v 1.096546 0.000000 -4.386183
v 2.193091 0.000000 -4.386183
v 3.289637 0.000000 -4.386183
v 4.386183 0.000000 -4.386183
v 5.482729 0.000000 -4.386183
v 0.000000 0.000000 -5.482729
v 1.096546 0.000000 -5.482729
v 2.193091 0.000000 -5.482729
v 3.289637 0.000000 -5.482729
v 4.386183 0.000000 -5.482729
v 5.482729 0.000000 -5.482729
vt 0.500000 0.500000
vt 0.600000 0.500000
vt 0.700000 0.500000
vt 0.800000 0.500000
vt 0.900000 0.500000
vt 1.000000 0.500000
vt 0.500000 0.600000
vt 0.600000 0.600000
vt 0.700000 0.600000
vt 0.800000 0.600000
vt 0.900000 0.600000
vt 1.000000 0.600000
vt 0.500000 0.700000
vt 0.600000 0.700000
vt 0.700000 0.700000
vt 0.800000 0.700000
vt 0.900000 0.700000
vt 1.000000 0.700000
vt 0.500000 0.800000
vt 0.600000 0.800000
vt 0.700000 0.800000
vt 0.800000 0.800000
vt 0.900000 0.800000
vt 1.000000 0.800000
vt 0.500000 0.900000
vt 0.600000 0.900000
vt 0.700000 0.900000
vt 0.800000 0.900000
vt 0.900000 0.900000
vt 1.000000 0.900000
vt 0.500000 1.000000
vt 0.600000 1.000000
vt 0.700000 1.000000
vt 0.800000 1.000000
vt 0.900000 1.000000
vt 1.000000 1.000000
vn 0.000000 1.000000 0.000000
vn 0.000000 1.000000 0.000000
vn 0.000000 1.000000 0.000000
vn 0.000000 1.000000 0.000000
vn 0.000000 1.000000 0.000000
vn 0.000000 1.000000 0.000000
vn 0.000000 1.000000 0.000000
vn 0.000000 1.000000 0.000000
vn 0.000000 1.000000 0.000000
vn 0.000000 1.000000 0.000000
vn 0.000000 1.000000 0.000000
vn 0.000000 1.000000 0.000000
vn 0.000000 1.000000 0.000000
vn 0.000000 1.000000 0.000000
vn 0.000000 1.000000 0.000000
vn 0.000000 1.000000 0.000000
vn 0.000000 1.000000 0.000000
vn 0.000000 1.000000 0.000000
vn 0.000000 1.000000 0.000000
vn 0.000000 1.000000 0.000000
vn 0.000000 1.000000 0.000000
vn 0.000000 1.000000 0.000000
vn 0.000000 1.000000 0.000000
vn 0.000000 1.000000 0.000000
vn 0.000000 1.000000 0.000000
vn 0.000000 1.000000 0.000000
vn 0.000000 1.000000 0.000000
vn 0.000000 1.000000 0.000000
vn 0.000000 1.000000 0.000000
vn 0.000000 1.000000 0.000000
vn 0.000000 1.000000 0.000000
vn 0.000000 1.000000 0.000000
vn 0.000000 1.000000 0.000000
vn 0.000000 1.000000 0.000000
vn 0.000000 1.000000 0.000000
vn 0.000000 1.000000 0.000000
s 1
g pPlane1
usemtl initialShadingGroup
f 37/37/37 38/38/38 44/44/39 43/43/40
f 38/38/38 39/39/41 45/45/42 44/44/39
f 39/39/41 40/40/43 46/46/44 45/45/42
f 40/40/43 41/41/45 47/47/46 46/46/44
f 41/41/45 42/42/47 48/48/48 47/47/46
f 43/43/40 44/44/39 50/50/49 49/49/50
f 44/44/39 45/45/42 51/51/51 50/50/49
f 45/45/42 46/46/44 52/52/52 51/51/51
f 46/46/44 47/47/46 53/53/53 52/52/52
f 47/47/46 48/48/48 54/54/54 53/53/53
f 49/49/50 50/50/49 56/56/55 55/55/56
f 50/50/49 51/51/51 57/57/57 56/56/55
f 51/51/51 52/52/52 58/58/58 57/57/57
f 52/52/52 53/53/53 59/59/59 58/58/58
f 53/53/53 54/54/54 60/60/60 59/59/59
f 55/55/56 56/56/55 62/62/61 61/61/62
f 56/56/55 57/57/57 63/63/63 62/62/61
f 57/57/57 58/58/58 64/64/64 63/63/63
f 58/58/58 59/59/59 65/65/65 64/64/64
f 59/59/59 60/60/60 66/66/66 65/65/65
f 61/61/62 62/62/61 68/68/67 67/67/68
f 62/62/61 63/63/63 69/69/69 68/68/67
f 63/63/63 64/64/64 70/70/70 69/69/69
f 64/64/64 65/65/65 71/71/71 70/70/70
f 65/65/65 66/66/66 72/72/72 71/71/71
g default
v 0.000000 0.000000 -5.504936
v 1.096546 0.000000 -5.504936
v 2.193091 0.000000 -5.504936
v 3.289637 0.000000 -5.504936
v 4.386183 0.000000 -5.504936
v 5.482729 0.000000 -5.504936
v 0.000000 1.096546 -5.504936
v 1.096546 1.096546 -5.504936
v 2.193091 1.096546 -5.504936
v 3.289637 1.096546 -5.504936
v 4.386183 1.096546 -5.504936
v 5.482729 1.096546 -5.504936
v 0.000000 2.193091 -5.504936
v 1.096546 2.193091 -5.504936
v 2.193091 2.193091 -5.504936
v 3.289637 2.193091 -5.504936
v 4.386183 2.193091 -5.504936
v 5.482729 2.193091 -5.504936
v 0.000000 3.289637 -5.504936
v 1.096546 3.289637 -5.504936
v 2.193091 3.289637 -5.504936
v 3.289637 3.289637 -5.504936
v 4.386183 3.289637 -5.504936
v 5.482729 3.289637 -5.504936
v 0.000000 4.386183 -5.504936
v 1.096546 4.386183 -5.504936
v 2.193091 4.386183 -5.504936
v 3.289637 4.386183 -5.504936
v 4.386183 4.386183 -5.504936
v 5.482729 4.386183 -5.504936
v 0.000000 5.482729 -5.504936
v 1.096546 5.482729 -5.504936
v 2.193091 5.482729 -5.504936
v 3.289637 5.482729 -5.504936
v 4.386183 5.482729 -5.504936
v 5.482729 5.482729 -5.504936
vt 0.500000 0.500000
vt 0.600000 0.500000
vt 0.700000 0.500000
vt 0.800000 0.500000
vt 0.900000 0.500000
vt 1.000000 0.500000
vt 0.500000 0.600000
vt 0.600000 0.600000
vt 0.700000 0.600000
vt 0.800000 0.600000
vt 0.900000 0.600000
vt 1.000000 0.600000
vt 0.500000 0.700000
vt 0.600000 0.700000
vt 0.700000 0.700000
vt 0.800000 0.700000
vt 0.900000 0.700000
vt 1.000000 0.700000
vt 0.500000 0.800000
vt 0.600000 0.800000
vt 0.700000 0.800000
vt 0.800000 0.800000
vt 0.900000 0.800000
vt 1.000000 0.800000
vt 0.500000 0.900000
vt 0.600000 0.900000
vt 0.700000 0.900000
vt 0.800000 0.900000
vt 0.900000 0.900000
vt 1.000000 0.900000
vt 0.500000 1.000000
vt 0.600000 1.000000
vt 0.700000 1.000000
vt 0.800000 1.000000
vt 0.900000 1.000000
vt 1.000000 1.000000
vn 0.000000 0.000000 1.000000
vn 0.000000 0.000000 1.000000
vn 0.000000 0.000000 1.000000
vn 0.000000 0.000000 1.000000
vn 0.000000 0.000000 1.000000
vn 0.000000 0.000000 1.000000
vn 0.000000 0.000000 1.000000
vn 0.000000 0.000000 1.000000
vn 0.000000 0.000000 1.000000
vn 0.000000 0.000000 1.000000
vn 0.000000 -0.000000 1.000000
vn 0.000000 0.000000 1.000000
vn 0.000000 0.000000 1.000000
vn 0.000000 -0.000000 1.000000
vn 0.000000 0.000000 1.000000
vn 0.000000 0.000000 1.000000
vn 0.000000 0.000000 1.000000
vn 0.000000 0.000000 1.000000
vn 0.000000 0.000000 1.000000
vn 0.000000 -0.000000 1.000000
vn 0.000000 0.000000 1.000000
vn 0.000000 0.000000 1.000000
vn 0.000000 0.000000 1.000000
vn 0.000000 0.000000 1.000000
vn 0.000000 0.000000 1.000000
vn 0.000000 0.000000 1.000000
vn 0.000000 0.000000 1.000000
vn 0.000000 0.000000 1.000000
vn 0.000000 0.000000 1.000000
vn 0.000000 0.000000 1.000000
vn 0.000000 0.000000 1.000000
vn 0.000000 0.000000 1.000000
vn 0.000000 -0.000000 1.000000
vn 0.000000 0.000000 1.000000
vn 0.000000 0.000000 1.000000
vn 0.000000 0.000000 1.000000
s 1
g pPlane3
usemtl initialShadingGroup
f 73/73/73 74/74/74 80/80/75 79/79/76
f 74/74/74 75/75/77 81/81/78 80/80/75
f 75/75/77 76/76/79 82/82/80 81/81/78
f 76/76/79 77/77/81 83/83/82 82/82/80
f 77/77/81 78/78/83 84/84/84 83/83/82
f 79/79/76 80/80/75 86/86/85 85/85/86
f 80/80/75 81/81/78 87/87/87 86/86/85
f 81/81/78 82/82/80 88/88/88 87/87/87
f 82/82/80 83/83/82 89/89/89 88/88/88
f 83/83/82 84/84/84 90/90/90 89/89/89
f 85/85/86 86/86/85 92/92/91 91/91/92
f 86/86/85 87/87/87 93/93/93 92/92/91
f 87/87/87 88/88/88 94/94/94 93/93/93
f 88/88/88 89/89/89 95/95/95 94/94/94
f 89/89/89 90/90/90 96/96/96 95/95/95
f 91/91/92 92/92/91 98/98/97 97/97/98
f 92/92/91 93/93/93 99/99/99 98/98/97
f 93/93/93 94/94/94 100/100/100 99/99/99
f 94/94/94 95/95/95 101/101/101 100/100/100
f 95/95/95 96/96/96 102/102/102 101/101/101
f 97/97/98 98/98/97 104/104/103 103/103/104
f 98/98/97 99/99/99 105/105/105 104/104/103
f 99/99/99 100/100/100 106/106/106 105/105/105
f 100/100/100 101/101/101 107/107/107 106/106/106
f 101/101/101 102/102/102 108/108/108 107/107/107
