# This file uses centimeters as units for non-parametric coordinates.

mtllib CornellBlueWall.mtl
g default
v 0.021611 5.500000 -5.488625
v 0.021611 5.500000 0.011375
v 0.021611 0.000000 0.011375
v 0.021611 0.000000 -5.488625
vn 1.000000 0.000000 0.000000
vn 1.000000 0.000000 0.000000
vn 1.000000 0.000000 0.000000
vn 1.000000 0.000000 0.000000
vn 1.000000 0.000000 0.000000
vn 1.000000 0.000000 0.000000
s off
g CornellBlueWall1:blueWall
usemtl initialShadingGroup
f 1//1 2//2 3//3
f 1//4 3//5 4//6
